<svg width="50" height="50" viewBox="0 0 50 50" fill="none" xmlns="http://www.w3.org/2000/svg">
<path d="M33.5 8H16.5C11.8056 8 8 11.8056 8 16.5V33.5C8 38.1944 11.8056 42 16.5 42H33.5C38.1944 42 42 38.1944 42 33.5V16.5C42 11.8056 38.1944 8 33.5 8Z" stroke="white" stroke-width="3" stroke-linecap="round" stroke-linejoin="round"/>
<path d="M31.9243 23.9732C32.1402 25.4296 31.8915 26.9171 31.2134 28.224C30.5352 29.5309 29.4623 30.5907 28.1471 31.2526C26.832 31.9146 25.3416 32.145 23.8879 31.9111C22.4343 31.6772 21.0914 30.9909 20.0503 29.9497C19.0091 28.9086 18.3228 27.5657 18.0889 26.1121C17.855 24.6584 18.0854 23.168 18.7474 21.8529C19.4093 20.5377 20.4691 19.4648 21.776 18.7866C23.0829 18.1085 24.5704 17.8598 26.0268 18.0757C27.5124 18.296 28.8878 18.9883 29.9497 20.0503C31.0117 21.1122 31.704 22.4876 31.9243 23.9732Z" stroke="white" stroke-width="3" stroke-linecap="round" stroke-linejoin="round"/>
</svg>
